<svg xmlns="http://www.w3.org/2000/svg" viewBox="0 0 51.9 50.18"><g data-name="Calque 2"><g data-name="Calque 1"><g data-name="Groupe 19"><g data-name="Ellipse 9" transform="rotate(-88 25.95 25.09)"><ellipse cx="25.95" cy="25.09" rx="25.09" ry="25.95" fill="#6b90ee"/><ellipse cx="25.95" cy="25.09" rx="20.09" ry="20.95" fill="none" stroke="#fff" stroke-width="10"/></g><g data-name="Tracé 6"><path d="M17.54 24.1a4.92 4.92 0 01-2.54-.6 2 2 0 01-.85-1.95c.07-1.92 2-5.12 5-8.17C22 10.49 25 8.51 26.49 8.56s3.2 1.51 4.65 3.89a13.91 13.91 0 012.19 7.19c-.06 1.78-1.17 3-3.4 3.63a20 20 0 01-6.16.54 25.59 25.59 0 00-2.9.14 30.8 30.8 0 01-3.33.15z" fill="#fff"/><path d="M26.47 9.06c-1.14 0-3.89 1.55-6.94 4.67-2.89 3-4.8 6-4.86 7.83a1.56 1.56 0 00.62 1.53 4.68 4.68 0 002.26.51 29.89 29.89 0 003.28-.15 27.38 27.38 0 013-.14 19.22 19.22 0 006-.52A5.27 5.27 0 0032 21.62a2.74 2.74 0 00.84-2 13.48 13.48 0 00-2.12-6.91c-1.34-2.21-3-3.6-4.24-3.65m0-1c3.56.13 7.48 7 7.32 11.6s-6.51 4.78-10.07 4.65c-1.73-.06-4.18.36-6.24.29s-3.93-.71-3.85-3.07C13.83 17 23 7.94 26.51 8.06z" fill="#707070"/></g></g></g></g></svg>