<svg xmlns="http://www.w3.org/2000/svg" viewBox="0 0 89.98 88.24"><g data-name="Calque 2"><g data-name="Calque 1"><g data-name="Groupe 30"><g data-name="Ellipse 1" transform="rotate(-88 44.985 44.122)"><ellipse cx="44.99" cy="44.12" rx="44.12" ry="44.99" fill="#6b90ee"/><ellipse cx="44.99" cy="44.12" rx="39.12" ry="39.99" fill="none" stroke="#fff" stroke-width="10"/></g><g data-name="Tracé 2"><path d="M40.12 38.52a5.36 5.36 0 01-3.71-2 16.17 16.17 0 01-2.72-4.29 34.44 34.44 0 01-2.1-6.11 68.71 68.71 0 014.75-7.35c3.59-4.78 6.75-7.27 9.14-7.18 3.51.12 5.77 4.47 6.81 7.06a34 34 0 012.3 12.85 6.54 6.54 0 01-1.45 4.18 7.11 7.11 0 01-3.44 2.09c-2.7.91-6.1.87-9.58.75z" fill="#fff"/><path d="M45.47 12.14c-2.19-.08-5.29 2.4-8.73 7a67 67 0 00-4.61 7.12 34.1 34.1 0 002 5.84c1.23 2.66 3.26 5.84 6 5.94 3.44.12 6.74.16 9.41-.68 3-.93 4.44-2.78 4.54-5.8a33.46 33.46 0 00-2.27-12.66A16.54 16.54 0 0049 14a5.13 5.13 0 00-3.48-1.86m0-1c6.27.22 9.87 12.63 9.59 20.43s-8.72 7.67-15 7.45-9-12.93-9-12.93 8.12-15.17 14.39-14.95z" fill="#707070"/></g></g></g></g></svg>