<svg xmlns="http://www.w3.org/2000/svg" viewBox="0 0 64.02 60.57"><g data-name="Calque 2"><g data-name="Calque 1"><g data-name="Groupe 20"><g data-name="Ellipse 7" transform="rotate(-88 32.007 30.279)"><ellipse cx="32.01" cy="30.28" rx="30.28" ry="32.01" fill="#6b90ee"/><ellipse cx="32.01" cy="30.28" rx="25.28" ry="27.01" fill="none" stroke="#fff" stroke-width="10"/></g><g data-name="Tracé 5"><path d="M30.94 27.65c-4.13-.14-7.33-4.58-7.14-9.89s3.69-9.51 7.81-9.36c1.92.06 4.46 1.83 6.63 4.61a19.24 19.24 0 012.54 4.3 10.32 10.32 0 01.9 4.26 5.41 5.41 0 01-3.74 5 17 17 0 01-7 1.08z" fill="#fff"/><path d="M31.59 8.9c-3.85-.14-7.12 3.85-7.3 8.88S27.11 27 31 27.15a16.63 16.63 0 006.78-1c2.24-1 3.37-2.45 3.45-4.55.08-2.34-1.2-5.5-3.35-8.24S33.34 9 31.59 8.94m0-1C36 8.09 42.34 16 42.14 21.63s-6.85 6.72-11.26 6.56-7.82-4.81-7.62-10.4 4-10 8.37-9.89z" fill="#707070"/></g></g></g></g></svg>