<svg xmlns="http://www.w3.org/2000/svg" viewBox="0 0 72.66 72.66"><g data-name="Calque 2"><g data-name="Calque 1"><g data-name="Groupe 17"><g data-name="Ellipse 3"><circle cx="36.33" cy="36.33" r="36.33" fill="#6b90ee"/><circle cx="36.33" cy="36.33" r="31.33" fill="none" stroke="#fff" stroke-width="10"/></g><g data-name="Tracé 3"><path d="M36.28 34a14.73 14.73 0 01-8.14-3.6A13.61 13.61 0 0125 26.74a7.73 7.73 0 01.3-8.55 13.6 13.6 0 013.39-3.46 14.71 14.71 0 018.38-3c2.24.07 5.14 2 7.56 5.1s4 6.79 3.85 9.66c-.23 6.28-7.77 7.73-12.2 7.51z" fill="#fff"/><path d="M37.05 12.22A14.27 14.27 0 0029 15.13a13.44 13.44 0 00-3.27 3.33 7.25 7.25 0 00-.28 8 13.46 13.46 0 003 3.55 14.24 14.24 0 007.84 3.48A16.73 16.73 0 0044 32.05a6.29 6.29 0 004-5.63 11.73 11.73 0 00-1-4.67 20 20 0 00-2.77-4.67 17.6 17.6 0 00-3.68-3.53A7 7 0 0037 12.16m0-1c5.09.17 12.11 8.84 11.89 15.28s-7.62 8.22-12.7 8-13.12-5.69-12.89-12.13S32 11 37.08 11.22z" fill="#707070"/></g></g></g></g></svg>