<svg xmlns="http://www.w3.org/2000/svg" viewBox="0 0 64.02 62.28"><g data-name="Calque 2"><g data-name="Calque 1"><g data-name="Groupe 21"><g data-name="Groupe 18"><g data-name="Ellipse 5"><ellipse cx="32.01" cy="31.14" rx="31.14" ry="32.01" transform="rotate(-88.3 31.85 31.124)" fill="#6b90ee"/><ellipse cx="32.01" cy="31.14" rx="26.14" ry="27.01" transform="rotate(-88 32.007 31.14)" fill="none" stroke="#fff" stroke-width="10"/></g></g><g data-name="Tracé 4"><path d="M31.47 27.59h-1.34c-5.82-.2-10.39-4.83-10.2-10.3S25 7.52 30.82 7.72A9.45 9.45 0 0135.4 9.4a21.43 21.43 0 014.55 4 23 23 0 013.41 5 10.2 10.2 0 011.23 4.6 3.67 3.67 0 01-1.21 2.72 7 7 0 01-3.06 1.38 36.43 36.43 0 01-8.85.49z" fill="#fff"/><path d="M30.8 8.14C25.26 8 20.61 12 20.43 17.22s4.17 9.6 9.72 9.79h1.34a35.78 35.78 0 008.71-.43c3.4-.8 3.85-2.49 3.89-3.68.08-2.44-1.69-6.09-4.51-9.31s-6.27-5.41-8.78-5.5m0-1c6.1.21 14.45 10.08 14.25 15.84-.19 5.35-7.68 5.28-13.64 5.08h-1.34C24 27.8 19.19 23 19.39 17.19S24.74 7 30.84 7.14z" fill="#707070"/></g></g></g></g></svg>