<svg xmlns="http://www.w3.org/2000/svg" viewBox="0 0 775.02 825.95"><defs><style>.cls-2{fill:#dfe7f7}.cls-3{fill:#c19e0e}.cls-4{fill:#f4d03f}.cls-6{fill:#396ef1}.cls-7{fill:#fff}.cls-8{fill:#85c1e9}.cls-10{fill:#bacce2}.cls-11{fill:#a2b3cc}.cls-12{fill:#383873}.cls-13,.cls-25{fill:none;stroke:#000;stroke-linecap:round;stroke-miterlimit:10;stroke-width:1.83px}.cls-13,.cls-20{opacity:.15}.cls-13,.cls-16,.cls-20{mix-blend-mode:overlay}.cls-15{fill:#ffad94}.cls-16{opacity:.25}.cls-18{fill:#0c2059}.cls-19{fill:#2e4780}.cls-22{fill:#b3c3dd}.cls-23{fill:#86abe2}.cls-27{fill:#4e82ea}</style></defs><g style="isolation:isolate"><g id="Calque_2" data-name="Calque 2"><g id="OBJECTS"><path class="cls-2" d="M754.85 384.59c-52.2 78.16-163.61 319.89-136.2 409.6l-399.67.1s-57.75-43-113.85-117.76a596.99 596.99 0 01-30.06-43.84A546.45 546.45 0 0146 579.83C19.94 525.68 1.38 462.93.62 393.58-2 153.49 205.8-69.64 488.48 20.4S807 306.43 754.85 384.59z"/><path class="cls-3" d="M504.79 797a2.75 2.75 0 01-2.14-1L289.51 531a2.75 2.75 0 014.28-3.45l213.14 265a2.74 2.74 0 01-2.14 4.46z"/><path class="cls-4" d="M174.17 797a2.73 2.73 0 01-2.13-4.46l213.13-265a2.75 2.75 0 014.28 3.45L176.31 796a2.73 2.73 0 01-2.14 1z"/><path class="cls-4" d="M387.31 797a2.75 2.75 0 01-2.14-1L172 531a2.74 2.74 0 114.27-3.45l213.14 265a2.75 2.75 0 01-.42 3.86 2.71 2.71 0 01-1.68.59z"/><path class="cls-3" d="M211.94 536.31h-99a7 7 0 01-7-7 7 7 0 017-7h99a7 7 0 017 7 7 7 0 01-7 7z"/><path class="cls-4" d="M496.85 536.31h-283a7 7 0 01-7-7 7 7 0 017-7h283z"/><path class="cls-3" d="M288.43 661.78a7.69 7.69 0 11-7.69-7.69 7.68 7.68 0 017.69 7.69z"/><path d="M405.9 661.78a7.69 7.69 0 11-7.68-7.69 7.68 7.68 0 017.68 7.69z" fill="#ffc947"/><rect class="cls-6" x="194.97" y="220.17" width="117.6" height="92.03" rx="3.99"/><path class="cls-7" d="M279.29 260.81h-3.69a22 22 0 00-2.49-5.68l2.85-2.85a2.79 2.79 0 000-3.93l-4-4a2.77 2.77 0 00-3.93 0l-3 3a22.13 22.13 0 00-5.36-2.16v-4.54a2.78 2.78 0 00-2.78-2.78h-5.67a2.77 2.77 0 00-2.78 2.78v4.59a22 22 0 00-5.21 2.07l-3.36-3.31a2.8 2.8 0 00-3.94 0l-4 4a2.77 2.77 0 000 3.93L235 255a22.8 22.8 0 00-2.42 5.31h-4.33a2.79 2.79 0 00-2.78 2.78v5.67a2.78 2.78 0 002.78 2.78h3.8a21.38 21.38 0 002.13 5.94l-2.59 2.59a2.78 2.78 0 000 3.94l4 4a2.77 2.77 0 003.93 0l2.25-2.25a21.86 21.86 0 006.14 2.78v3.15a2.78 2.78 0 002.78 2.78h5.67a2.78 2.78 0 002.78-2.78v-2.94a22.39 22.39 0 006.36-2.56l2.17 2.16a2.77 2.77 0 003.93 0l4-4a2.77 2.77 0 000-3.93l-2.22-2.22a22.39 22.39 0 002.44-6.17h3.45a2.77 2.77 0 002.78-2.78v-5.67a2.77 2.77 0 00-2.76-2.77zM256.8 281a14.3 14.3 0 1111.2-11.25A14.3 14.3 0 01256.8 281z"/><rect class="cls-4" x="345.16" y="169.34" width="117.6" height="92.03" rx="3.99"/><path class="cls-7" d="M384.11 230.82a2.64 2.64 0 01-1.94-.86l-12.4-13.27a3.08 3.08 0 010-4.15l12.6-13.49a2.62 2.62 0 013.89 0 3.08 3.08 0 010 4.15l-10.67 11.41 10.46 11.19a3.1 3.1 0 010 4.16 2.67 2.67 0 01-1.94.86zm39.71 0a2.67 2.67 0 01-1.95-.86 3.1 3.1 0 010-4.16l10.46-11.19-10.66-11.41a3.06 3.06 0 010-4.15 2.61 2.61 0 013.88 0l12.6 13.49a3.06 3.06 0 010 4.15L425.76 230a2.67 2.67 0 01-1.94.82zm-26.01 3.64a2.48 2.48 0 01-1-.22 3 3 0 01-1.51-3.82l12.3-32.35a2.68 2.68 0 013.58-1.61 3 3 0 011.51 3.83l-12.31 32.34a2.75 2.75 0 01-2.57 1.83zM298 267.74h244.2a1.66 1.66 0 011.66 1.66v9.6H296.37v-9.6a1.66 1.66 0 011.63-1.66z"/><path class="cls-8" d="M296.37 279h247.52v128.92a3.09 3.09 0 01-3.09 3.08H299.46a3.09 3.09 0 01-3.09-3.09V279z"/><path class="cls-4" d="M532 273.39a1.74 1.74 0 11-1.74-1.74 1.74 1.74 0 011.74 1.74zm-11.95 0a1.74 1.74 0 11-1.74-1.74 1.74 1.74 0 011.74 1.74zm-11.96 0a1.74 1.74 0 11-1.74-1.74 1.74 1.74 0 011.74 1.74z"/><path class="cls-6" d="M446.65 296.88H309.2a2.39 2.39 0 01-2.39-2.39 2.39 2.39 0 012.39-2.39h137.45a2.39 2.39 0 012.39 2.39 2.39 2.39 0 01-2.39 2.39zm0 15.22H309.2a2.39 2.39 0 01-2.39-2.39 2.39 2.39 0 012.39-2.39h137.45a2.39 2.39 0 012.39 2.39 2.39 2.39 0 01-2.39 2.39zm-65.57 15.23H309.2a2.39 2.39 0 01-2.39-2.39 2.39 2.39 0 012.39-2.4h71.88a2.39 2.39 0 012.39 2.4 2.39 2.39 0 01-2.39 2.39z"/><path class="cls-4" d="M446.65 357.78H309.2a2.4 2.4 0 01-2.39-2.4 2.39 2.39 0 012.39-2.38h137.45a2.39 2.39 0 012.39 2.39 2.4 2.4 0 01-2.39 2.39zM381.08 373H309.2a2.39 2.39 0 01-2.39-2.39 2.4 2.4 0 012.39-2.4h71.88a2.4 2.4 0 012.39 2.4 2.39 2.39 0 01-2.39 2.39z"/><path class="cls-6" d="M381.08 388.22H309.2a2.39 2.39 0 01-2.39-2.39 2.39 2.39 0 012.39-2.39h71.88a2.39 2.39 0 012.39 2.39 2.39 2.39 0 01-2.39 2.39z"/><path class="cls-7" d="M446.65 327.33H395a2.39 2.39 0 01-2.39-2.39 2.39 2.39 0 012.39-2.4h51.65a2.39 2.39 0 012.39 2.4 2.39 2.39 0 01-2.39 2.39z"/><path class="cls-4" d="M514.88 293.14l-36.52 36.53a2.41 2.41 0 01-3.39 0 2.41 2.41 0 010-3.39l36.53-36.52a2.38 2.38 0 013.38 0 2.4 2.4 0 010 3.38z"/><circle class="cls-4" cx="494.93" cy="362.23" r="21.54" transform="rotate(-76.66 494.938 362.235)"/><path class="cls-6" d="M492.11 377.24a12.2 12.2 0 11-12.19-12.19 12.2 12.2 0 0112.19 12.19z"/><path class="cls-8" d="M296.37 397.65v43.55l40.02-40.02"/><path fill="#86aabc" d="M253.77 452.97h87.81l31.75 61.11h-87.8l-31.76-61.11z"/><path class="cls-7" d="M287.3 509.56L261 459a1.6 1.6 0 011.42-2.33h76a1.58 1.58 0 011.41.86l26.29 50.6a1.59 1.59 0 01-1.41 2.33h-76a1.6 1.6 0 01-1.41-.9z"/><path class="cls-10" d="M285.53 514.08h71.12v8.16h-71.12z"/><path class="cls-11" d="M417.74 514.08h-70.18a4.08 4.08 0 00-4.08 4.08 4.08 4.08 0 004.08 4.08h70.18a4.08 4.08 0 004.08-4.08 4.08 4.08 0 00-4.08-4.08z"/><path class="cls-10" d="M285.53 514.08L253.77 453l-1.59 1.19a2.62 2.62 0 00-.74 3.32l34.09 64.76z"/><path class="cls-11" d="M309.67 517.89h7.83v1.36h-7.83zm9.84 0h7.83v1.36h-7.83zm9.84 0h7.83v1.36h-7.83z"/><path class="cls-12" d="M445.61 633.7s-72.83 56.71-84.38 71.11c-4.36 5.46-12 15-19.83 24.81-12.92 16.09-26.63 32.85-28.26 33.26-2.6.65-24.45-16-25.11-19.57-.41-2.24 19.49-36.39 36.72-63.85 10.48-16.69 20-30.93 23.3-34 8.8-8.16 63-36.87 63-36.87z"/><path class="cls-13" d="M306.62 750.78s68-96.86 102.2-113.17"/><path d="M521.52 385c-.77 1.76-1.65 3.59-2.63 5.46-5.33 10.17-1.4 20.37-7.47 23a7.43 7.43 0 01-1.23.38c-7.83 1.74-25.88-8.69-26.67-13.91s5.57-14.15 0-15.23S475 393 475 393c-4.57.47-6.2-7.2-13.71-7.2a12.93 12.93 0 00-3.11.4 22.22 22.22 0 00-8.6 4.75 21.43 21.43 0 00-2.31 2.19 14.89 14.89 0 01-6.37-12.56c.53-13.19 5.4-22.82 17.14-24.78 1.3-14.68 13.38-22.51 29.52-23 14.15-.44 16.27 12.28 16.6 15.45-.12-2.36-.78-10.12-4.15-15.45 7.08-.31 13.32 4.74 11.7 21.22 1.62-4.91 7.34-8 11.73-4.41-4.06 0-8 6.84-8 6.84a27.59 27.59 0 018 8.71c2.71 4.62 1.69 11.52-1.92 19.84z" fill="#382424"/><path class="cls-15" d="M511.42 413.44l-.19 2.41-.62 8.57s-13 11.15-20.43 0a1.53 1.53 0 00-.16-.22c-2.29-3.4-4.36-4.59-6.24-4.81-4.08-.5-7.38 3.49-10.78-.83-9.74-12.35-13.62-26.67-14.87-32.4a12.93 12.93 0 013.11-.4c7.51 0 9.14 7.67 13.71 7.2 0 0 3-9.36 8.57-8.28s-.79 10 0 15.23c.35 2.33 4.14 5.69 8.93 8.55 5.59 3.35 12.54 6 16.95 5.49.28 0 .53-.07.79-.13a7.43 7.43 0 001.23-.38z"/><path class="cls-16" d="M513.45 429.38c-5.88 4-16.64 4.67-16.64 4.67l-8.8-1.3s-3.68-5.35-2-8.33a10.43 10.43 0 012.32-2.34 62.92 62.92 0 0110.11-6.48c4.06-2.11 8.25-3.77 11.27-4 7.44-.38 9.62 13.75 3.74 17.78z"/><path d="M511.71 572.16C498.6 574.68 470.87 567 457.6 561c-3.92-1.75-6.59-3.37-7.23-4.5-2.54-4.49 0-7.93 6.33-22.17.72-1.61 1.47-3.35 2.27-5.23 4.29-10.09 4.31-31.6 4.29-50.14-.06-15.87-.13-29.56 2.4-32 5.47-5.27 32.78-22.53 32.78-22.53l5.44 28.34s3.07 14.38 6.31 33.16c5.97 34.57 12.52 84.07 1.52 86.23z" fill="#3688ea"/><path class="cls-12" d="M520.84 584.77c0 1.3-13.05 31.74-24 36.1s-76.92-.44-76.92-.44l-32.62 21.32 6.84 64.25 4.76 44.78.14 1.44c-10 6.52-35.1 8.28-37.81 2.66-2.62-5.66-42.63-126.14-27-147s116.12-51.33 116.12-51.33a54.79 54.79 0 009 4.5c11.17 4.58 25.35 7.45 36.15 9.14 4.16.64 7.8 1.11 10.58 1.44 3.52.42 5.64.59 5.64.59s9.12 11.23 9.12 12.55z"/><path class="cls-18" d="M403.18 794.19h-84.82c-.42-1.5.14-3 1.43-4.55 3.44-4.14 12.06-8.3 20.37-11.88 7.89-3.41 15.47-6.34 18-8.35 6-4.74 3.22-14 3.06-14.53.91 1.88 4.37 2.94 8.95 3.25 9 .64 22.26-1.59 28.86-5.91l-.14-1.44c2.52 4.83 3.71 28.72 4.12 38.86.12 2.8.17 4.55.17 4.55z"/><path class="cls-19" d="M370.18 758.13c-.26 4-.84 10.6-2 12.36-1.73 2.62-20.44 11.75-23 10.87-1.68-.55-3.73-2.38-5-3.6 7.89-3.41 15.47-6.34 18-8.35 6-4.74 3.22-14 3.06-14.53.9 1.88 4.36 2.94 8.94 3.25zm33 36.06h-84.82c-.42-1.5.14-3 1.43-4.55H403c.13 2.8.18 4.55.18 4.55z"/><path class="cls-18" d="M313.14 762.88s-6.44 17-12 26c-2.21 3.59-4.32 5.91-5.8 5.34-5.21-2-57.64-46.53-52.62-49.78a8.23 8.23 0 013.36-1c4.56-.59 12.12.05 19.11.77 6 .62 11.59 1.3 14.5 1.3 7.4 0 8.37-2.18 8.37-2.18.16.86 1.55 2.49 3.62 4.46 6.45 6.13 19.48 15.58 21.46 15.09z"/><path class="cls-19" d="M291.65 747.77c-11.11 7.36-22.7 2.93-25 1.25-1.69-1.23-1.69-3.52-1.51-4.83 6 .62 11.59 1.3 14.5 1.3 7.4 0 8.37-2.18 8.37-2.18.18.86 1.57 2.49 3.64 4.46zm9.46 41.08c-2.21 3.59-4.32 5.91-5.8 5.34-5.21-2-57.64-46.53-52.62-49.78a8.23 8.23 0 013.36-1z"/><path class="cls-15" d="M457.64 516.64c-4.1 5.71-11.44 14.42-17.48 13.55l-.75-.13c-11.54-2-79.35-19-82.56-19.68s-26.08-.86-24.78-3.26 14.35-10 17.83-9.81 17.18 4.16 30.88 3.72 49.58 0 49.58 0l1.74-3 2.57-4.43c-.67 13.28 15.33 24.12 22.97 23.04z"/><path class="cls-13" d="M457.64 566.17s-3.13 16.64 9.05 22.18m-15.44-8.8s-80.57 34.36-84.43 45 20.49 126.22 20.49 126.22"/><path class="cls-20" d="M520.84 584.77c0 1.3-13.05 31.74-24 36.1s-76.92-.44-76.92-.44l-32.62 21.32 6.84 64.25s-13.78-73.38-13.78-78.18c0-4.1 91.12-30.29 115.13-57.69 9.41 1.48 16.22 2 16.22 2s9.13 11.32 9.13 12.64z"/><path class="cls-16" d="M477.88 506.9c-5.65 8-14.77 18.2-21.18 27.42.72-1.61 1.47-3.35 2.27-5.23 4.29-10.09 4.31-31.6 4.29-50.14L482.79 466s4.21 28-4.91 40.9z"/><path d="M461.21 514.17c-.84.77-1.7 1.54-2.57 2.25a4.43 4.43 0 01-1 .22c-7.67 1.08-23.69-9.76-23-23.05a19.24 19.24 0 012.12-5.54c6.55-13.22 26.27-42.63 29.89-41.28 0 0 12.67 2 16.11 19.26 3.24 16.23-8.37 35.97-21.55 48.14z" fill="#1c5ed3"/><path class="cls-16" d="M506.07 571.57c-2.78-.33-6.42-.8-10.58-1.44-10.8-1.69-25-4.56-36.15-9.14 9.85-.35 30.92-6.83 33.46-55.06a235.36 235.36 0 005.31 27.95 379.81 379.81 0 017.96 37.69zm-5.2-159.1a33.33 33.33 0 00-2.39 3.13 62.92 62.92 0 00-10.11 6.48 7.3 7.3 0 00-4.59-2.69l8.67-10.93a48 48 0 008.42 4.01zm-43.23 104.17c-4.1 5.71-11.44 14.42-17.48 13.55l-.75-.13c-7.47-10.8-7.75-24.95-7.31-32l2.57-4.43c-.67 13.25 15.33 24.09 22.97 23.01z"/><path class="cls-16" d="M521.52 385c-.77 1.76-1.65 3.59-2.63 5.46-2.62 5-3 10-3.43 14.09a25.88 25.88 0 00-2.67-1.83 47.44 47.44 0 00-11.92 9.74c-8-2.86-16.79-9-17.34-12.58-.79-5.22 5.57-14.15 0-15.23S475 393 475 393c-4.57.47-6.2-7.2-13.71-7.2a12.93 12.93 0 00-3.11.4 22.22 22.22 0 00-8.6 4.75s8.42-11.95 21.68-9.53c0 0-1.94-3.69-10.88-3.25 18.71-6.1 30.66-3.7 36.43 3 4.7 5.54 15.74 12.35 24.71 3.83z"/><path class="cls-22" d="M559.56 641.75H494.3s51.77-15.23 51.77-117.88v-3.92c-.53-68.6-15.19-106.44-33.26-117.22a78.72 78.72 0 0123.1-8.73 120.84 120.84 0 0114.41-2.32c44.68-4.56 80.37 13 84.62 32.78s-21.89 217.29-75.38 217.29z"/><path class="cls-23" d="M546.07 523.87c0 102.65-51.77 117.88-51.77 117.88h-107l4.45-3.16 28.17-18.16 56.54-3.92c3-12.61 11.32-13 23.93-14.35 7.34-.75 8.05-13.14 5.82-29.53-1.63-11.78-4.78-25.64-8.11-38.75a235.36 235.36 0 01-5.31-27.95 244.36 244.36 0 01-2-30.15A255.34 255.34 0 01496 422.3c.26-1.3.53-2.55.81-3.74v-.12a25.76 25.76 0 014-5.95 47.44 47.44 0 0111.92-9.74 25.88 25.88 0 012.67 1.83c16.82 12.81 30.08 50.21 30.59 115.39.08 1.28.08 2.58.08 3.9z"/><path class="cls-22" d="M525.42 794.19h-77a2.77 2.77 0 01-1.7-5L466 774.15a35.36 35.36 0 0013.54-27.82V641.75h14.76v104.58a35.33 35.33 0 0013.57 27.82l19.25 15.08a2.77 2.77 0 01-1.7 4.96z"/><g style="mix-blend-mode:overlay" opacity=".25"><path class="cls-25" d="M584.17 395.58s.56 1.44 1.48 4.32"/><path d="M588.25 408.82a360.08 360.08 0 018.75 45.89c7 54-.11 129.85-47.09 177.88" stroke-dasharray="9.29 9.29" fill="none" stroke="#000" stroke-linecap="round" stroke-miterlimit="10" stroke-width="1.83"/><path class="cls-25" d="M546.56 635.86c-1.1 1.06-2.22 2.09-3.36 3.11"/></g><path class="cls-20" d="M494.3 641.75v28.56a103.73 103.73 0 01-14.79 6.22v-34.78zm20.45-44.37c-3.48 10.88-25.21 8.93-27.84 17-5.6 17.06-8.7 9.56-30.21 11.73-12.3 1.25-21.23 9.14-26.61 15.67h-42.78l4.45-3.16 28.17-18.16 56.54-3.92c3-12.61 11.32-13 23.93-14.35 7.34-.75 8.05-13.14 5.82-29.53-1.63-11.78-4.78-25.64-8.11-38.75a235.36 235.36 0 01-5.31-27.95 244.36 244.36 0 01-2-30.15c8.33 43.58 26.53 113.52 23.95 121.57z"/><path class="cls-20" d="M546.07 523.87v-3.92c-.53-68.6-15.19-106.44-33.26-117.22a78.72 78.72 0 0123.1-8.73c-3 4.3-6.1 10.77-4.63 17.67 2.62 12.21 32.2 59.18 20.88 134.43-8.16 54.29-5.45 82.53 3.08 95.69H494.3s51.77-15.27 51.77-117.92z"/><path class="cls-16" d="M172.71 468a33.88 33.88 0 01-.7 6.63H151c-6.17-4.1-16.24-12.21-22.28-24.39 5.62 6.12 15.21 13.57 25 15.84 8.54 1.92 14.89 1.08 18.99 1.92z"/><path class="cls-27" d="M221.47 384.59c-2.34 8.51-13.09 25-22.9 42.7-10.72 19.3-20.32 40-16.56 53.09a29.2 29.2 0 011.35 7.45c0 5.71-4.3 3.93-8.68.69a79.77 79.77 0 01-9-8.14l.33-25.44s-14.43-13.26-2.58-42.25c.75-1.83 1.61-3.74 2.58-5.71 16.31-33 40.76-67.53 17.61-77.32 31.99-1.96 42.76 37.12 37.85 54.93z"/><path d="M183.64 329.66a23.73 23.73 0 0114.51 10.44 32.08 32.08 0 012.24 4c.3.7.56 1.42.84 2.14l.42 1.07c.12.36.21.73.32 1.1l.61 2.22c.21.73.3 1.5.45 2.25l.4 2.26c0 .77.11 1.54.14 2.32a38.21 38.21 0 01-1.36 9.09c-.74 3-1.75 5.87-2.78 8.75-2.13 5.73-4.59 11.33-7.13 16.88-5.09 11.1-10.58 22-15.43 33.19a151.45 151.45 0 00-6.4 17 56.4 56.4 0 00-1.9 8.8 19.25 19.25 0 00.59 8.64.91.91 0 01-1.72.6 20.77 20.77 0 01-.57-9.47 56.3 56.3 0 012.07-9.05 153.83 153.83 0 016.68-17.13c5-11.16 10.63-22 15.85-33 2.61-5.51 5.13-11.06 7.32-16.74a88.61 88.61 0 002.86-8.66 36.86 36.86 0 001.46-9c0-.75-.07-1.5-.11-2.25l-.37-2.25c-.14-.75-.21-1.51-.41-2.24l-.58-2.2c-.1-.37-.19-.74-.3-1.1l-.4-1.06c-.27-.71-.52-1.43-.81-2.13a32.93 32.93 0 00-2.17-4 23.64 23.64 0 00-14.32-10.47z"/><path d="M206.79 436c-9.77 25.77 0 45.32-14.68 48.1-6.72 1.28-9.68-3.69-10.91-9.48a52.45 52.45 0 01-.49-14.81 49.92 49.92 0 017.72-12.55c4.27-5.03 10.33-9.93 18.36-11.26z" fill="#1a6ed3"/><path d="M172.71 468c-.06 6-1.41 11.09-4.19 13.76a8.41 8.41 0 01-.81.72c-6.94 5.62-11.37-4.67-11.37-4.67s-18.45-9.1-27.6-27.57c-7-14.18-8.57-33.91 7.93-59.28C139.08 409 149 421.27 158.8 433l3.64 4.34c6.79 8.11 10.36 20.66 10.27 30.66z" fill="#769bd6"/><path d="M136.66 390.91a76.63 76.63 0 00-1.49 11.79 78.28 78.28 0 00.25 11.86 51.57 51.57 0 007.22 22.29c4.14 6.72 9.81 12.3 15 18.36a45.45 45.45 0 016.77 10 23.49 23.49 0 012.2 12 .91.91 0 11-1.82-.15 21.78 21.78 0 00-1.84-11.18 43.74 43.74 0 00-6.37-9.77c-5-6.07-10.63-11.84-14.71-18.76A52.37 52.37 0 01135 414.6a80.39 80.39 0 010-11.92 76.43 76.43 0 011.66-11.77zM206.8 436c-2.81 3.24-5.41 6.65-7.91 10.12s-4.84 7.06-7 10.77a92.78 92.78 0 00-5.66 11.44 54 54 0 00-3.36 12.16.92.92 0 01-1 .78.91.91 0 01-.78-1 55 55 0 013.91-12.46 93.55 93.55 0 016.13-11.38c2.27-3.66 4.78-7.16 7.39-10.57s5.36-6.71 8.28-9.86z"/><path class="cls-23" d="M200.86 481l-6.26 38.44a3.43 3.43 0 01-3.37 2.78h-39a3.43 3.43 0 01-3.36-2.78l-5.09-31.21-1.18-7.23a3.42 3.42 0 013.36-4h51.53a3.43 3.43 0 013.37 4z"/><path d="M206.79 488.85h-70.12l1.84-10.47a4.64 4.64 0 014.54-3.8h57.37a4.6 4.6 0 014.52 3.8z" fill="#6791ce"/><path class="cls-16" d="M180.71 459.82a52.54 52.54 0 00.47 14.76H172a33.88 33.88 0 00.7-6.63c.09-10-3.48-22.5-10.27-30.64L158.8 433a57.46 57.46 0 014.65-20.26c.53 9.24 2.8 25.31 12 27 7 1.28 16.15-5.68 23.1-12.42-3.68 6.61-7.21 13.39-10.14 20a49.92 49.92 0 00-7.7 12.5zm-5.2 62.42h-23.29a3.43 3.43 0 01-3.36-2.78l-5-30.61H164c-.5 4.29-1.1 12.29.42 18.49 1.17 4.93 5.49 11.26 11.09 14.9z"/><rect class="cls-8" x="243.22" y="113.59" width="117.6" height="92.03" rx="3.99"/><path class="cls-7" d="M270.6 146.14V156a1.44 1.44 0 001.44 1.44h5.48A1.43 1.43 0 00279 156v-9.9a1.43 1.43 0 011.44-1.44h.53a1.43 1.43 0 011.43 1.44v26.92a1.43 1.43 0 01-1.43 1.44h-.53a1.43 1.43 0 01-1.44-1.44V162a1.44 1.44 0 00-1.44-1.44H272a1.45 1.45 0 00-1.4 1.44v11.05a1.43 1.43 0 01-1.43 1.44h-.54a1.43 1.43 0 01-1.43-1.44v-26.91a1.43 1.43 0 011.43-1.44h.54a1.43 1.43 0 011.43 1.44zm19.12 1.61h-2.57a1.43 1.43 0 01-1.43-1.43v-.18a1.43 1.43 0 011.43-1.44h11.41a1.44 1.44 0 011.44 1.44v.18a1.44 1.44 0 01-1.44 1.43H296a1.44 1.44 0 00-1.44 1.44v23.87a1.43 1.43 0 01-1.44 1.44h-.53a1.44 1.44 0 01-1.44-1.44v-23.87a1.44 1.44 0 00-1.43-1.44zm31.45 13.93c-.22-3.94-.44-8.31-.31-11.67h-.18c-.66 3.31-1.46 6.85-2.39 10.34l-3.66 14h-2.17L309 160.93c-1-3.8-1.86-7.48-2.43-10.92h-.14c0 3.49-.18 7.65-.35 11.89l-.51 11.23a1.44 1.44 0 01-1.44 1.37H304a1.44 1.44 0 01-1.44-1.52l1.6-26.93a1.44 1.44 0 011.44-1.35h1.2a1.45 1.45 0 011.39 1.08l3.22 12.54c1 3.93 1.76 6.85 2.38 10.26h.13c.58-3.41 1.24-6.24 2.22-10.26l3.09-12.53a1.42 1.42 0 011.39-1.09h1.32a1.44 1.44 0 011.44 1.35l1.5 26.95a1.43 1.43 0 01-1.43 1.52h-.29a1.44 1.44 0 01-1.44-1.37zM331 144.7h.53a1.43 1.43 0 011.44 1.44v24.05a1.44 1.44 0 001.44 1.44H340a1.43 1.43 0 011.44 1.43 1.43 1.43 0 01-1.44 1.44h-9a1.44 1.44 0 01-1.44-1.44v-26.92a1.44 1.44 0 011.44-1.44z"/><path class="cls-12" d="M397.38 121.47c3.73 0 4.61-2.51 4.61-4.75a54.6 54.6 0 00-.4-5.77 55.74 55.74 0 01-.41-6c0-6.11 3.73-8.69 8.55-8.69h.81v3.53h-1c-2.85 0-4 2-4 5.09a41.51 41.51 0 00.41 5.16c.14 1.76.34 3.39.34 5 .07 5.29-1.77 7.13-4.68 7.94v.14c2.91.88 4.75 2.71 4.68 8.07 0 1.7-.2 3.4-.34 5.09a43.81 43.81 0 00-.41 5.23c0 3.05 1 5.16 4.07 5.16h1v3.53h-.88c-4.48 0-8.48-2.24-8.48-8.69a57.06 57.06 0 01.41-6c.2-2 .4-3.94.4-5.84 0-2.17-.88-4.82-4.61-4.82zm69.19 3.39c-3.74 0-4.62 2.65-4.62 4.82 0 1.9.21 3.87.41 5.84a59.84 59.84 0 01.41 6c0 6.45-4 8.69-8.49 8.69h-.88v-3.53h1c3.06-.34 4.07-2.11 4.07-5.16 0-1.83-.2-3.53-.34-5.23a43.45 43.45 0 01-.4-5.09c-.07-5.36 1.76-7.19 4.68-8.07V123c-2.92-.81-4.75-2.65-4.68-7.94a44.73 44.73 0 01.4-5c.14-1.63.34-3.33.34-5.16 0-3-1.15-4.75-4-5.09h-1v-3.52h.82c4.81 0 8.55 2.58 8.55 8.69a58.45 58.45 0 01-.41 6 54.59 54.59 0 00-.41 5.77c0 2.24.88 4.75 4.62 4.75z"/><path class="cls-4" d="M443.28 129.8v-13.06l-11.31-6.53-11.3 6.53v13.06l11.3 6.52 11.31-6.52zm85.06 65.05a27.57 27.57 0 00-32.9 43l-4.14-.49a.92.92 0 00-.22 1.82l6.31.75a1 1 0 00.68-.19.94.94 0 00.34-.61l.73-6.11a.92.92 0 10-1.82-.21l-.46 3.88a25.75 25.75 0 0130.67-40.21.92.92 0 001.23-.41.91.91 0 00-.42-1.22zm-23.76 50.65a27.58 27.58 0 0032.91-43l4.14.49a.91.91 0 10.22-1.81l-6.32-.75a.91.91 0 00-1 .8l-.73 6.11a.91.91 0 00.8 1 .92.92 0 001-.8l.46-3.89a25.75 25.75 0 01-30.67 40.21.92.92 0 10-.82 1.64zm244.8 51.38H583.72a5.46 5.46 0 01-5.46-5.47 5.45 5.45 0 015.46-5.46h165.66a5.46 5.46 0 015.47 5.46 5.47 5.47 0 01-5.47 5.47z"/><path class="cls-6" d="M690.23 320.65H583.72a5.46 5.46 0 01-5.46-5.47 5.46 5.46 0 015.46-5.47h106.51a5.47 5.47 0 015.47 5.47 5.47 5.47 0 01-5.47 5.47zm0 25.51H583.72a5.45 5.45 0 01-5.46-5.46 5.46 5.46 0 015.46-5.47h106.51a5.47 5.47 0 015.47 5.47 5.46 5.46 0 01-5.47 5.46zM162 206H76a5.47 5.47 0 01-5.47-5.47A5.47 5.47 0 0176 195.1h86a5.46 5.46 0 015.46 5.47A5.46 5.46 0 01162 206z"/><path class="cls-4" d="M129.51 229.8H76a5.47 5.47 0 01-5.47-5.46 5.47 5.47 0 015.47-5.47h53.56a5.47 5.47 0 015.47 5.47 5.47 5.47 0 01-5.52 5.46zm0 25.52H76a5.47 5.47 0 01-5.47-5.47 5.47 5.47 0 015.47-5.47h53.56a5.47 5.47 0 015.47 5.47 5.47 5.47 0 01-5.52 5.47z"/><path d="M674.75 602.38a266.77 266.77 0 01-18.47 41.4c-23.15 42.31-50 69.21-51 108.66 0 0-8.35-37.16-1.65-79.5 3.75-23.77 12.25-49.18 29.62-70.56 48.34-59.45 41.18-113.53 41.18-113.53s24.19 44.36.32 113.53z" fill="#4f6faf"/><path d="M617.79 706.17c-.2-1.27-.3-2.45-.38-3.68l-.08-1.82v-1.81c0-1.21.06-2.42.11-3.63s.17-2.41.29-3.61l.17-1.8.26-1.79c.19-1.19.32-2.39.56-3.57.5-2.36.92-4.74 1.58-7.05a133.29 133.29 0 0110.29-26.88l1.63-3.22c.52-1.08 1.17-2.09 1.75-3.14 1.21-2.07 2.35-4.19 3.63-6.21l7.78-12a167.15 167.15 0 0012.67-25.49 246.26 246.26 0 009.05-27.07c2.53-9.18 4.6-18.5 6.24-27.89.82-4.69 1.53-9.41 2.1-14.14s1-9.48 1.33-14.24a141.9 141.9 0 00.21-14.29c-.07-1.19-.1-2.38-.24-3.57l-.16-1.78-.26-1.76a22.73 22.73 0 00-1.94-6.86 22.65 22.65 0 012.06 6.84l.28 1.77.2 1.78c.15 1.18.21 2.38.29 3.57a139.78 139.78 0 010 14.33q-.32 7.15-1.13 14.29c-.52 4.75-1.18 9.48-2 14.2-1.53 9.43-3.51 18.8-6 28A248.09 248.09 0 01659.4 601a168 168 0 01-12.51 25.87c-2.57 4.09-5.16 8.07-7.71 12.07-1.27 2-2.38 4.1-3.58 6.15-.57 1-1.21 2-1.72 3.12l-1.6 3.18a131.56 131.56 0 00-10.07 26.51 97.2 97.2 0 00-2.55 13.93c-.12 1.17-.27 2.35-.31 3.52s-.15 2.36-.14 3.53a44.31 44.31 0 00.38 7v.07a.92.92 0 01-1.81.27z"/><path class="cls-16" d="M656.28 643.78c-23.15 42.31-50 69.21-51 108.66 0 0-8.35-37.16-1.65-79.5 14.96-6.13 36.07-16.12 52.65-29.16z"/><path d="M618.65 794.2s-16.91-28.91 23.11-64.58 71.33-82.86 65.24-121c-38.27 44.47-140 107.53-111.35 185.61z" fill="#2f72d3"/><path d="M707 608.58a99.5 99.5 0 01-6.59 12.19c-2.42 3.94-5.1 7.71-7.85 11.43a205.67 205.67 0 01-18.22 20.9l-5 4.85-5.13 4.66c-1.69 1.59-3.52 3-5.27 4.52l-5.3 4.46a125.14 125.14 0 00-10 9.49c-1.61 1.64-3.11 3.39-4.65 5.11s-3 3.5-4.39 5.34a150 150 0 00-25.6 48.6 105.66 105.66 0 00-4.66 27c-.27 9.12.9 18.4 4.55 26.73a.92.92 0 01-.47 1.21.9.9 0 01-1.2-.47c-3.72-8.69-4.82-18.22-4.47-27.51a106.56 106.56 0 015-27.4A151 151 0 01633.86 691c1.42-1.84 3-3.57 4.46-5.34s3.09-3.46 4.73-5.09a122.84 122.84 0 0110.17-9.46l5.35-4.42c1.76-1.5 3.59-2.9 5.29-4.47l5.16-4.61 5-4.79a203.86 203.86 0 0018.35-20.72c2.78-3.69 5.49-7.44 7.94-11.35a98.71 98.71 0 006.69-12.17z"/><path class="cls-6" d="M44.34 584.77s-20.88-19-32-66.61C76.31 572.37 92 620.65 92 620.65z"/><path d="M12.37 518.16q13.34 19.1 26.06 38.62 6.34 9.78 12.39 19.74l3 5 2.88 5.08c1 1.69 1.84 3.44 2.76 5.16s1.7 3.53 2.55 5.29a.92.92 0 01-1.65.8v-.07c-.8-1.75-1.54-3.52-2.4-5.25s-1.71-3.46-2.63-5.16l-2.76-5.11-2.87-5q-5.82-10.07-12-20-12.35-19.76-25.33-39.1z"/><path class="cls-27" d="M90.67 611.51c-11.5-10.36-28.52-20.63-44.67-31.68C24.4 565.13 4.32 549 .61 529.27c-8.46 71.15 74.3 103.18 74.3 103.18l.16.24 30.06 43.84s12.28-40.87-14.46-65.02z"/><path d="M.61 529.27C.66 537.2 3 545 6.3 552.08a69.93 69.93 0 0013.83 19.06 89 89 0 009 7.67c3.16 2.36 6.43 4.57 9.74 6.73 6.62 4.31 13.35 8.47 19.9 12.94a166.06 166.06 0 0118.76 14.6c.74.66 1.47 1.34 2.17 2s1.43 1.38 2.12 2.09c1.37 1.45 2.77 2.86 4 4.39a84.77 84.77 0 017.22 9.52l1.59 2.53c.52.85 1 1.73 1.48 2.6 1 1.72 1.81 3.55 2.69 5.34a78 78 0 014.06 11.26 89.75 89.75 0 013.14 23.72.92.92 0 01-1.83 0 87.61 87.61 0 00-2.87-23.25 77.59 77.59 0 00-3.86-11.07c-.86-1.76-1.62-3.57-2.6-5.27-.48-.85-.92-1.73-1.42-2.57l-1.55-2.5a83.58 83.58 0 00-7-9.44c-1.25-1.52-2.62-2.93-4-4.38-.68-.71-1.39-1.39-2.08-2.09s-1.4-1.38-2.13-2a164.06 164.06 0 00-18.5-14.69c-6.48-4.51-13.17-8.74-19.76-13.12-3.29-2.19-6.55-4.44-9.71-6.84a92.36 92.36 0 01-9-7.8 70.27 70.27 0 01-13.6-19.33C2.81 545 .58 537.2.61 529.27z"/><path class="cls-2" d="M679.82 826h-556a15.88 15.88 0 01-15.88-15.88 15.88 15.88 0 0115.88-15.88h556a15.88 15.88 0 0115.88 15.88A15.88 15.88 0 01679.82 826z"/></g></g></g></svg>