<svg xmlns="http://www.w3.org/2000/svg" viewBox="0 0 64.02 62.28"><defs><style>.cls-1{fill:#6b90ee;}.cls-2{fill:none;stroke:#fff;stroke-width:10px;}.cls-3{fill:#fff;}.cls-4{fill:#707070;}</style></defs><title>bulle_3</title><g id="Calque_2" data-name="Calque 2"><g id="Calque_1-2" data-name="Calque 1"><g id="Groupe_21" data-name="Groupe 21"><g id="Groupe_18" data-name="Groupe 18"><g id="Ellipse_5" data-name="Ellipse 5"><ellipse class="cls-1" cx="32.01" cy="31.14" rx="31.14" ry="32.01" transform="matrix(0.03, -1, 1, 0.03, -0.23, 62.04)"/><ellipse class="cls-2" cx="32.01" cy="31.14" rx="26.14" ry="27.01" transform="translate(-0.23 62.04) rotate(-88)"/></g></g><g id="Tracé_4" data-name="Tracé 4"><path class="cls-3" d="M31.47,27.59H30.13c-5.82-.2-10.39-4.83-10.2-10.3S25,7.52,30.82,7.72A9.45,9.45,0,0,1,35.4,9.4a21.43,21.43,0,0,1,4.55,4,23,23,0,0,1,3.41,5A10.2,10.2,0,0,1,44.59,23a3.67,3.67,0,0,1-1.21,2.72,7,7,0,0,1-3.06,1.38A36.43,36.43,0,0,1,31.47,27.59Z"/><path class="cls-4" d="M30.8,8.14C25.26,8,20.61,12,20.43,17.22s4.17,9.6,9.72,9.79h1.34a35.78,35.78,0,0,0,8.71-.43c3.4-.8,3.85-2.49,3.89-3.68.08-2.44-1.69-6.09-4.51-9.31s-6.27-5.41-8.78-5.5m0-1c6.1.21,14.45,10.08,14.25,15.84-.19,5.35-7.68,5.28-13.64,5.08H30.07C24,27.8,19.19,23,19.39,17.19S24.74,7,30.84,7.14Z"/></g></g></g></g></svg>