<svg xmlns="http://www.w3.org/2000/svg" viewBox="0 0 89.98 88.24"><defs><style>.cls-1{fill:#6b90ee;}.cls-2{fill:none;stroke:#fff;stroke-width:10px;}.cls-3{fill:#fff;}.cls-4{fill:#707070;}</style></defs><title>bulle_5</title><g id="Calque_2" data-name="Calque 2"><g id="Calque_1-2" data-name="Calque 1"><g id="Groupe_30" data-name="Groupe 30"><g id="Ellipse_1" data-name="Ellipse 1"><ellipse class="cls-1" cx="44.99" cy="44.12" rx="44.12" ry="44.99" transform="translate(-0.68 87.54) rotate(-88)"/><ellipse class="cls-2" cx="44.99" cy="44.12" rx="39.12" ry="39.99" transform="translate(-0.68 87.54) rotate(-88)"/></g><g id="Tracé_2" data-name="Tracé 2"><path class="cls-3" d="M40.12,38.52a5.36,5.36,0,0,1-3.71-2,16.17,16.17,0,0,1-2.72-4.29,34.44,34.44,0,0,1-2.1-6.11,68.71,68.71,0,0,1,4.75-7.35c3.59-4.78,6.75-7.27,9.14-7.18,3.51.12,5.77,4.47,6.81,7.06a34,34,0,0,1,2.3,12.85,6.54,6.54,0,0,1-1.45,4.18,7.11,7.11,0,0,1-3.44,2.09C47,38.68,43.6,38.64,40.12,38.52Z"/><path class="cls-4" d="M45.47,12.14c-2.19-.08-5.29,2.4-8.73,7a67,67,0,0,0-4.61,7.12,34.1,34.1,0,0,0,2,5.84c1.23,2.66,3.26,5.84,6,5.94,3.44.12,6.74.16,9.41-.68,3-.93,4.44-2.78,4.54-5.8A33.46,33.46,0,0,0,51.81,18.9,16.54,16.54,0,0,0,49,14a5.13,5.13,0,0,0-3.48-1.86m0-1c6.27.22,9.87,12.63,9.59,20.43s-8.72,7.67-15,7.45-9-12.93-9-12.93S39.23,10.92,45.5,11.14Z"/></g></g></g></g></svg>