<svg xmlns="http://www.w3.org/2000/svg" viewBox="0 0 64.02 60.57"><defs><style>.cls-1{fill:#6b90ee;}.cls-2{fill:none;stroke:#fff;stroke-width:10px;}.cls-3{fill:#fff;}.cls-4{fill:#707070;}</style></defs><title>bulle_2</title><g id="Calque_2" data-name="Calque 2"><g id="Calque_1-2" data-name="Calque 1"><g id="Groupe_20" data-name="Groupe 20"><g id="Ellipse_7" data-name="Ellipse 7"><ellipse class="cls-1" cx="32.01" cy="30.28" rx="30.28" ry="32.01" transform="translate(0.63 61.21) rotate(-88)"/><ellipse class="cls-2" cx="32.01" cy="30.28" rx="25.28" ry="27.01" transform="translate(0.63 61.21) rotate(-88)"/></g><g id="Tracé_5" data-name="Tracé 5"><path class="cls-3" d="M30.94,27.65c-4.13-.14-7.33-4.58-7.14-9.89s3.69-9.51,7.81-9.36c1.92.06,4.46,1.83,6.63,4.61a19.24,19.24,0,0,1,2.54,4.3,10.32,10.32,0,0,1,.9,4.26,5.41,5.41,0,0,1-3.74,5A17,17,0,0,1,30.94,27.65Z"/><path class="cls-4" d="M31.59,8.9c-3.85-.14-7.12,3.85-7.3,8.88S27.11,27,31,27.15a16.63,16.63,0,0,0,6.78-1c2.24-1,3.37-2.45,3.45-4.55.08-2.34-1.2-5.5-3.35-8.24S33.34,9,31.59,8.94m0-1C36,8.09,42.34,16,42.14,21.63s-6.85,6.72-11.26,6.56-7.82-4.81-7.62-10.4,4-10,8.37-9.89Z"/></g></g></g></g></svg>