<svg xmlns="http://www.w3.org/2000/svg" viewBox="0 0 775.8 592"><defs><style>.cls-1{fill:#fff;stroke:#2754c5;stroke-miterlimit:10;}.cls-2{fill:#2754c5;}</style></defs><title>sous_marin</title><g id="Calque_2" data-name="Calque 2"><g id="Calque_1-2" data-name="Calque 1"><path class="cls-1" d="M775.3,421.63c0-4.14,0-12.43-8.29-12.43V342.91c0-2.29,0-8.28-4.14-8.28H750.44c-4.14,0-4.14,6-4.14,8.28l4.14,66.29H717.56c-.3-24.58-5.2-47.47-33.41-64.14v-93.3H584.71l-25.16,50.33c-25.22-5.07-52-9.06-79.83-11.92-11.17-43.48-25.59-98.89-59.65-104.7-12.4-2.11-24-4.18-34.88-6.15V129.7H352.4v43.65c-15.32-2.76-29-5.12-41.13-6.78V3.18c-3.78-5-18.11,0-24.86,0H249.12C245-5.11,240.75,7.84,241.8,14.9c3.18,21.42-5.11,38,7.32,29.71h20.72c8.28,0,8.28,3.52,8.28,7.86V163.89c-51.71.2-64.6,30-79.11,134.42C84.83,318.06-1.46,359.15.54,421.61c-4,124.34,341.65,164,561.11,119.14l23.06,50.75h99.44V498.2c31.26-18.49,33.88-37.81,33.36-64.14h32.93l.14,66c-.06,2.39-.23,8.64,4.08,8.75l13,.35c4.32.12,4.49-6.13,4.55-8.51l-5.62-67.18A12.4,12.4,0,0,0,775.3,421.63Z"/><circle class="cls-2" cx="186.97" cy="409.2" r="37.29"/><circle class="cls-2" cx="319.55" cy="409.2" r="37.29"/><circle class="cls-2" cx="443.85" cy="409.2" r="37.29"/></g></g></svg>