<svg xmlns="http://www.w3.org/2000/svg" viewBox="0 0 775.02 825.95"><defs><style>.cls-1{isolation:isolate;}.cls-2{fill:#dfe7f7;}.cls-3{fill:#c19e0e;}.cls-4{fill:#f4d03f;}.cls-5{fill:#ffc947;}.cls-6{fill:#396ef1;}.cls-7{fill:#fff;}.cls-8{fill:#85c1e9;}.cls-9{fill:#86aabc;}.cls-10{fill:#bacce2;}.cls-11{fill:#a2b3cc;}.cls-12{fill:#383873;}.cls-13,.cls-25,.cls-26{fill:none;stroke:#000;stroke-linecap:round;stroke-miterlimit:10;stroke-width:1.83px;}.cls-13,.cls-20{opacity:0.15;}.cls-13,.cls-16,.cls-20,.cls-24,.cls-28{mix-blend-mode:overlay;}.cls-14{fill:#382424;}.cls-15{fill:#ffad94;}.cls-16,.cls-24{opacity:0.25;}.cls-17{fill:#3688ea;}.cls-18{fill:#0c2059;}.cls-19{fill:#2e4780;}.cls-21{fill:#1c5ed3;}.cls-22{fill:#b3c3dd;}.cls-23{fill:#86abe2;}.cls-26{stroke-dasharray:9.29 9.29;}.cls-27{fill:#4e82ea;}.cls-28{opacity:0.53;}.cls-29{fill:#1a6ed3;}.cls-30{fill:#769bd6;}.cls-31{fill:#6791ce;}.cls-32{fill:#4f6faf;}.cls-33{fill:#2f72d3;}</style></defs><title>version_bleu</title><g class="cls-1"><g id="Calque_2" data-name="Calque 2"><g id="OBJECTS"><path class="cls-2" d="M754.85,384.59c-52.2,78.16-163.61,319.89-136.2,409.6l-399.67.1s-57.75-43-113.85-117.76C94.93,663,84.79,648.31,75.07,632.69A546.45,546.45,0,0,1,46,579.83C19.94,525.68,1.38,462.93.62,393.58-2,153.49,205.8-69.64,488.48,20.4S807,306.43,754.85,384.59Z"/><path class="cls-3" d="M504.79,797a2.75,2.75,0,0,1-2.14-1L289.51,531a2.75,2.75,0,0,1,4.28-3.45l213.14,265a2.74,2.74,0,0,1-2.14,4.46Z"/><path class="cls-4" d="M174.17,797a2.73,2.73,0,0,1-2.13-4.46l213.13-265a2.75,2.75,0,0,1,4.28,3.45L176.31,796A2.73,2.73,0,0,1,174.17,797Z"/><path class="cls-4" d="M387.31,797a2.75,2.75,0,0,1-2.14-1L172,531a2.74,2.74,0,1,1,4.27-3.45l213.14,265a2.75,2.75,0,0,1-.42,3.86A2.71,2.71,0,0,1,387.31,797Z"/><path class="cls-3" d="M211.94,536.31h-99a7,7,0,0,1-7-7h0a7,7,0,0,1,7-7h99a7,7,0,0,1,7,7h0A7,7,0,0,1,211.94,536.31Z"/><path class="cls-4" d="M496.85,536.31h-283a7,7,0,0,1-7-7h0a7,7,0,0,1,7-7h283Z"/><path class="cls-3" d="M288.43,661.78a7.69,7.69,0,1,1-7.69-7.69A7.68,7.68,0,0,1,288.43,661.78Z"/><path class="cls-5" d="M405.9,661.78a7.69,7.69,0,1,1-7.68-7.69A7.68,7.68,0,0,1,405.9,661.78Z"/><rect class="cls-6" x="194.97" y="220.17" width="117.6" height="92.03" rx="3.99"/><path class="cls-7" d="M279.29,260.81H275.6a22,22,0,0,0-2.49-5.68l2.85-2.85a2.79,2.79,0,0,0,0-3.93l-4-4a2.77,2.77,0,0,0-3.93,0l-3,3a22.13,22.13,0,0,0-5.36-2.16v-4.54a2.78,2.78,0,0,0-2.78-2.78h-5.67a2.77,2.77,0,0,0-2.78,2.78v4.59a22,22,0,0,0-5.21,2.07L239.87,244a2.8,2.8,0,0,0-3.94,0l-4,4a2.77,2.77,0,0,0,0,3.93L235,255a22.8,22.8,0,0,0-2.42,5.31h-4.33a2.79,2.79,0,0,0-2.78,2.78v5.67a2.78,2.78,0,0,0,2.78,2.78h3.8a21.38,21.38,0,0,0,2.13,5.94l-2.59,2.59a2.78,2.78,0,0,0,0,3.94l4,4a2.77,2.77,0,0,0,3.93,0l2.25-2.25a21.86,21.86,0,0,0,6.14,2.78v3.15a2.78,2.78,0,0,0,2.78,2.78h5.67a2.78,2.78,0,0,0,2.78-2.78v-2.94a22.39,22.39,0,0,0,6.36-2.56l2.17,2.16a2.77,2.77,0,0,0,3.93,0l4-4a2.77,2.77,0,0,0,0-3.93l-2.22-2.22a22.39,22.39,0,0,0,2.44-6.17h3.45a2.77,2.77,0,0,0,2.78-2.78v-5.67A2.77,2.77,0,0,0,279.29,260.81ZM256.8,281A14.3,14.3,0,1,1,268,269.75,14.3,14.3,0,0,1,256.8,281Z"/><rect class="cls-4" x="345.16" y="169.34" width="117.6" height="92.03" rx="3.99"/><path class="cls-7" d="M384.11,230.82a2.64,2.64,0,0,1-1.94-.86l-12.4-13.27a3.08,3.08,0,0,1,0-4.15l12.6-13.49a2.62,2.62,0,0,1,3.89,0,3.08,3.08,0,0,1,0,4.15l-10.67,11.41,10.46,11.19a3.1,3.1,0,0,1,0,4.16A2.67,2.67,0,0,1,384.11,230.82Z"/><path class="cls-7" d="M423.82,230.82a2.67,2.67,0,0,1-1.95-.86,3.1,3.1,0,0,1,0-4.16l10.46-11.19L421.67,203.2a3.06,3.06,0,0,1,0-4.15,2.61,2.61,0,0,1,3.88,0l12.6,13.49a3.06,3.06,0,0,1,0,4.15L425.76,230A2.67,2.67,0,0,1,423.82,230.82Z"/><path class="cls-7" d="M397.81,234.46a2.48,2.48,0,0,1-1-.22,3,3,0,0,1-1.51-3.82l12.3-32.35a2.68,2.68,0,0,1,3.58-1.61,3,3,0,0,1,1.51,3.83l-12.31,32.34A2.75,2.75,0,0,1,397.81,234.46Z"/><path class="cls-7" d="M298,267.74h244.2a1.66,1.66,0,0,1,1.66,1.66V279a0,0,0,0,1,0,0H296.37a0,0,0,0,1,0,0V269.4A1.66,1.66,0,0,1,298,267.74Z"/><path class="cls-8" d="M296.37,279H543.89a0,0,0,0,1,0,0V407.92A3.09,3.09,0,0,1,540.8,411H299.46a3.09,3.09,0,0,1-3.09-3.09V279A0,0,0,0,1,296.37,279Z"/><path class="cls-4" d="M532,273.39a1.74,1.74,0,1,1-1.74-1.74A1.74,1.74,0,0,1,532,273.39Z"/><path class="cls-4" d="M520.05,273.39a1.74,1.74,0,1,1-1.74-1.74A1.74,1.74,0,0,1,520.05,273.39Z"/><path class="cls-4" d="M508.09,273.39a1.74,1.74,0,1,1-1.74-1.74A1.74,1.74,0,0,1,508.09,273.39Z"/><path class="cls-6" d="M446.65,296.88H309.2a2.39,2.39,0,0,1-2.39-2.39h0a2.39,2.39,0,0,1,2.39-2.39H446.65a2.39,2.39,0,0,1,2.39,2.39h0A2.39,2.39,0,0,1,446.65,296.88Z"/><path class="cls-6" d="M446.65,312.1H309.2a2.39,2.39,0,0,1-2.39-2.39h0a2.39,2.39,0,0,1,2.39-2.39H446.65a2.39,2.39,0,0,1,2.39,2.39h0A2.39,2.39,0,0,1,446.65,312.1Z"/><path class="cls-6" d="M381.08,327.33H309.2a2.39,2.39,0,0,1-2.39-2.39h0a2.39,2.39,0,0,1,2.39-2.4h71.88a2.39,2.39,0,0,1,2.39,2.4h0A2.39,2.39,0,0,1,381.08,327.33Z"/><path class="cls-4" d="M446.65,357.78H309.2a2.4,2.4,0,0,1-2.39-2.4h0A2.39,2.39,0,0,1,309.2,353H446.65a2.39,2.39,0,0,1,2.39,2.39h0A2.4,2.4,0,0,1,446.65,357.78Z"/><path class="cls-4" d="M381.08,373H309.2a2.39,2.39,0,0,1-2.39-2.39h0a2.4,2.4,0,0,1,2.39-2.4h71.88a2.4,2.4,0,0,1,2.39,2.4h0A2.39,2.39,0,0,1,381.08,373Z"/><path class="cls-6" d="M381.08,388.22H309.2a2.39,2.39,0,0,1-2.39-2.39h0a2.39,2.39,0,0,1,2.39-2.39h71.88a2.39,2.39,0,0,1,2.39,2.39h0A2.39,2.39,0,0,1,381.08,388.22Z"/><path class="cls-7" d="M446.65,327.33H395a2.39,2.39,0,0,1-2.39-2.39h0a2.39,2.39,0,0,1,2.39-2.4h51.65a2.39,2.39,0,0,1,2.39,2.4h0A2.39,2.39,0,0,1,446.65,327.33Z"/><path class="cls-4" d="M514.88,293.14l-36.52,36.53a2.41,2.41,0,0,1-3.39,0h0a2.41,2.41,0,0,1,0-3.39l36.53-36.52a2.38,2.38,0,0,1,3.38,0h0A2.4,2.4,0,0,1,514.88,293.14Z"/><circle class="cls-4" cx="494.93" cy="362.23" r="21.54" transform="translate(28.28 760.24) rotate(-76.66)"/><path class="cls-6" d="M492.11,377.24a12.2,12.2,0,1,1-12.19-12.19A12.2,12.2,0,0,1,492.11,377.24Z"/><polyline class="cls-8" points="296.37 397.65 296.37 441.2 336.39 401.18"/><polygon class="cls-9" points="253.77 452.97 341.58 452.97 373.33 514.08 285.53 514.08 253.77 452.97"/><path class="cls-7" d="M287.3,509.56,261,459a1.6,1.6,0,0,1,1.42-2.33h76a1.58,1.58,0,0,1,1.41.86l26.29,50.6a1.59,1.59,0,0,1-1.41,2.33h-76A1.6,1.6,0,0,1,287.3,509.56Z"/><rect class="cls-10" x="285.53" y="514.08" width="71.12" height="8.16"/><path class="cls-11" d="M417.74,514.08H347.56a4.08,4.08,0,0,0-4.08,4.08h0a4.08,4.08,0,0,0,4.08,4.08h70.18a4.08,4.08,0,0,0,4.08-4.08h0A4.08,4.08,0,0,0,417.74,514.08Z"/><path class="cls-10" d="M285.53,514.08,253.77,453l-1.59,1.19a2.62,2.62,0,0,0-.74,3.32l34.09,64.76Z"/><rect class="cls-11" x="309.67" y="517.89" width="7.83" height="1.36"/><rect class="cls-11" x="319.51" y="517.89" width="7.83" height="1.36"/><rect class="cls-11" x="329.35" y="517.89" width="7.83" height="1.36"/><path class="cls-12" d="M445.61,633.7s-72.83,56.71-84.38,71.11c-4.36,5.46-12,15-19.83,24.81-12.92,16.09-26.63,32.85-28.26,33.26-2.6.65-24.45-16-25.11-19.57-.41-2.24,19.49-36.39,36.72-63.85,10.48-16.69,20-30.93,23.3-34,8.8-8.16,63-36.87,63-36.87Z"/><path class="cls-13" d="M306.62,750.78s68-96.86,102.2-113.17"/><path class="cls-14" d="M521.52,385c-.77,1.76-1.65,3.59-2.63,5.46-5.33,10.17-1.4,20.37-7.47,23a7.43,7.43,0,0,1-1.23.38c-7.83,1.74-25.88-8.69-26.67-13.91s5.57-14.15,0-15.23S475,393,475,393c-4.57.47-6.2-7.2-13.71-7.2a12.93,12.93,0,0,0-3.11.4,22.22,22.22,0,0,0-8.6,4.75,21.43,21.43,0,0,0-2.31,2.19,14.89,14.89,0,0,1-6.37-12.56c.53-13.19,5.4-22.82,17.14-24.78,1.3-14.68,13.38-22.51,29.52-23,14.15-.44,16.27,12.28,16.6,15.45-.12-2.36-.78-10.12-4.15-15.45,7.08-.31,13.32,4.74,11.7,21.22,1.62-4.91,7.34-8,11.73-4.41-4.06,0-8,6.84-8,6.84a27.59,27.59,0,0,1,8,8.71C526.15,369.78,525.13,376.68,521.52,385Z"/><path class="cls-15" d="M511.42,413.44l-.19,2.41-.62,8.57s-13,11.15-20.43,0a1.53,1.53,0,0,0-.16-.22c-2.29-3.4-4.36-4.59-6.24-4.81-4.08-.5-7.38,3.49-10.78-.83-9.74-12.35-13.62-26.67-14.87-32.4a12.93,12.93,0,0,1,3.11-.4c7.51,0,9.14,7.67,13.71,7.2,0,0,3-9.36,8.57-8.28s-.79,10,0,15.23c.35,2.33,4.14,5.69,8.93,8.55,5.59,3.35,12.54,6,16.95,5.49.28,0,.53-.07.79-.13A7.43,7.43,0,0,0,511.42,413.44Z"/><path class="cls-16" d="M513.45,429.38c-5.88,4-16.64,4.67-16.64,4.67l-8.8-1.3s-3.68-5.35-2-8.33a10.43,10.43,0,0,1,2.32-2.34,62.92,62.92,0,0,1,10.11-6.48c4.06-2.11,8.25-3.77,11.27-4C517.15,411.22,519.33,425.35,513.45,429.38Z"/><path class="cls-17" d="M511.71,572.16C498.6,574.68,470.87,567,457.6,561c-3.92-1.75-6.59-3.37-7.23-4.5-2.54-4.49,0-7.93,6.33-22.17.72-1.61,1.47-3.35,2.27-5.23,4.29-10.09,4.31-31.6,4.29-50.14-.06-15.87-.13-29.56,2.4-32,5.47-5.27,32.78-22.53,32.78-22.53l5.44,28.34s3.07,14.38,6.31,33.16C516.16,520.5,522.71,570,511.71,572.16Z"/><path class="cls-12" d="M520.84,584.77c0,1.3-13.05,31.74-24,36.1s-76.92-.44-76.92-.44l-32.62,21.32L394.14,706l4.76,44.78.14,1.44c-10,6.52-35.1,8.28-37.81,2.66a.06.06,0,0,1,0,0c-2.62-5.66-42.63-126.14-27-147s116.12-51.33,116.12-51.33a54.79,54.79,0,0,0,9,4.5c11.17,4.58,25.35,7.45,36.15,9.14,4.16.64,7.8,1.11,10.58,1.44,3.52.42,5.64.59,5.64.59S520.84,583.45,520.84,584.77Z"/><path class="cls-18" d="M403.18,794.19H318.36c-.42-1.5.14-3,1.43-4.55,3.44-4.14,12.06-8.3,20.37-11.88,7.89-3.41,15.47-6.34,18-8.35,6-4.74,3.22-14,3.06-14.53.91,1.88,4.37,2.94,8.95,3.25,9,.64,22.26-1.59,28.86-5.91l-.14-1.44c2.52,4.83,3.71,28.72,4.12,38.86C403.13,792.44,403.18,794.19,403.18,794.19Z"/><path class="cls-19" d="M370.18,758.13c-.26,4-.84,10.6-2,12.36-1.73,2.62-20.44,11.75-23,10.87-1.68-.55-3.73-2.38-5-3.6,7.89-3.41,15.47-6.34,18-8.35,6-4.74,3.22-14,3.06-14.53C362.14,756.76,365.6,757.82,370.18,758.13Z"/><path class="cls-19" d="M403.18,794.19H318.36c-.42-1.5.14-3,1.43-4.55H403C403.13,792.44,403.18,794.19,403.18,794.19Z"/><path class="cls-18" d="M313.14,762.88s-6.44,17-12,26c-2.21,3.59-4.32,5.91-5.8,5.34-5.21-2-57.64-46.53-52.62-49.78a8.23,8.23,0,0,1,3.36-1c4.56-.59,12.12.05,19.11.77,6,.62,11.59,1.3,14.5,1.3,7.4,0,8.37-2.18,8.37-2.18.16.86,1.55,2.49,3.62,4.46C298.13,753.92,311.16,763.37,313.14,762.88Z"/><path class="cls-19" d="M291.65,747.77c-11.11,7.36-22.7,2.93-25,1.25-1.69-1.23-1.69-3.52-1.51-4.83,6,.62,11.59,1.3,14.5,1.3,7.4,0,8.37-2.18,8.37-2.18C288.19,744.17,289.58,745.8,291.65,747.77Z"/><path class="cls-19" d="M301.11,788.85c-2.21,3.59-4.32,5.91-5.8,5.34-5.21-2-57.64-46.53-52.62-49.78a8.23,8.23,0,0,1,3.36-1Z"/><path class="cls-15" d="M457.64,516.64c-4.1,5.71-11.44,14.42-17.48,13.55l-.75-.13c-11.54-2-79.35-19-82.56-19.68s-26.08-.86-24.78-3.26,14.35-10,17.83-9.81,17.18,4.16,30.88,3.72,49.58,0,49.58,0l1.74-3,2.57-4.43C434,506.88,450,517.72,457.64,516.64Z"/><path class="cls-13" d="M457.64,566.17s-3.13,16.64,9.05,22.18"/><path class="cls-13" d="M451.25,579.55s-80.57,34.36-84.43,45,20.49,126.22,20.49,126.22"/><path class="cls-20" d="M520.84,584.77c0,1.3-13.05,31.74-24,36.1s-76.92-.44-76.92-.44l-32.62,21.32L394.14,706s-13.78-73.38-13.78-78.18c0-4.1,91.12-30.29,115.13-57.69,9.41,1.48,16.22,2,16.22,2S520.84,583.45,520.84,584.77Z"/><path class="cls-16" d="M477.88,506.9c-5.65,8-14.77,18.2-21.18,27.42.72-1.61,1.47-3.35,2.27-5.23,4.29-10.09,4.31-31.6,4.29-50.14L482.79,466S487,494,477.88,506.9Z"/><path class="cls-21" d="M461.21,514.17c-.84.77-1.7,1.54-2.57,2.25a4.43,4.43,0,0,1-1,.22c-7.67,1.08-23.69-9.76-23-23.05a19.24,19.24,0,0,1,2.12-5.54c6.55-13.22,26.27-42.63,29.89-41.28,0,0,12.67,2,16.11,19.26C486,482.26,474.39,502,461.21,514.17Z"/><path class="cls-16" d="M506.07,571.57c-2.78-.33-6.42-.8-10.58-1.44-10.8-1.69-25-4.56-36.15-9.14,9.85-.35,30.92-6.83,33.46-55.06a235.36,235.36,0,0,0,5.31,27.95A379.81,379.81,0,0,1,506.07,571.57Z"/><path class="cls-16" d="M500.87,412.47a33.33,33.33,0,0,0-2.39,3.13,62.92,62.92,0,0,0-10.11,6.48,7.3,7.3,0,0,0-4.59-2.69l8.67-10.93A48,48,0,0,0,500.87,412.47Z"/><path class="cls-16" d="M457.64,516.64c-4.1,5.71-11.44,14.42-17.48,13.55l-.75-.13c-7.47-10.8-7.75-24.95-7.31-32l2.57-4.43C434,506.88,450,517.72,457.64,516.64Z"/><path class="cls-16" d="M521.52,385c-.77,1.76-1.65,3.59-2.63,5.46-2.62,5-3,10-3.43,14.09a25.88,25.88,0,0,0-2.67-1.83,47.44,47.44,0,0,0-11.92,9.74v0c-8-2.86-16.79-9-17.34-12.58-.79-5.22,5.57-14.15,0-15.23S475,393,475,393c-4.57.47-6.2-7.2-13.71-7.2a12.93,12.93,0,0,0-3.11.4,22.22,22.22,0,0,0-8.6,4.75S458,379,471.26,381.42c0,0-1.94-3.69-10.88-3.25,18.71-6.1,30.66-3.7,36.43,3C501.51,386.71,512.55,393.52,521.52,385Z"/><path class="cls-22" d="M559.56,641.75H494.3s51.77-15.23,51.77-117.88c0-1.32,0-2.62,0-3.92-.53-68.6-15.19-106.44-33.26-117.22A78.72,78.72,0,0,1,535.91,394a120.84,120.84,0,0,1,14.41-2.32c44.68-4.56,80.37,13,84.62,32.78S613.05,641.75,559.56,641.75Z"/><path class="cls-23" d="M546.07,523.87c0,102.65-51.77,117.88-51.77,117.88h-107l4.45-3.16,28.17-18.16,56.54-3.92c3-12.61,11.32-13,23.93-14.35,7.34-.75,8.05-13.14,5.82-29.53-1.63-11.78-4.78-25.64-8.11-38.75a235.36,235.36,0,0,1-5.31-27.95,244.36,244.36,0,0,1-2-30.15A255.34,255.34,0,0,1,496,422.3c.26-1.3.53-2.55.81-3.74,0,0,0-.09,0-.12a25.76,25.76,0,0,1,4-5.95v0a47.44,47.44,0,0,1,11.92-9.74,25.88,25.88,0,0,1,2.67,1.83c16.82,12.81,30.08,50.21,30.59,115.39C546.07,521.25,546.07,522.55,546.07,523.87Z"/><path class="cls-22" d="M525.42,794.19h-77a2.77,2.77,0,0,1-1.7-5L466,774.15a35.36,35.36,0,0,0,13.54-27.82V641.75H494.3V746.33a35.33,35.33,0,0,0,13.57,27.82l19.25,15.08A2.77,2.77,0,0,1,525.42,794.19Z"/><g class="cls-24"><path class="cls-25" d="M584.17,395.58s.56,1.44,1.48,4.32"/><path class="cls-26" d="M588.25,408.82A360.08,360.08,0,0,1,597,454.71c7,54-.11,129.85-47.09,177.88"/><path class="cls-25" d="M546.56,635.86c-1.1,1.06-2.22,2.09-3.36,3.11"/></g><path class="cls-20" d="M494.3,641.75v28.56a103.73,103.73,0,0,1-14.79,6.22V641.75Z"/><path class="cls-20" d="M514.75,597.38c-3.48,10.88-25.21,8.93-27.84,17-5.6,17.06-8.7,9.56-30.21,11.73-12.3,1.25-21.23,9.14-26.61,15.67H387.31l4.45-3.16,28.17-18.16,56.54-3.92c3-12.61,11.32-13,23.93-14.35,7.34-.75,8.05-13.14,5.82-29.53-1.63-11.78-4.78-25.64-8.11-38.75a235.36,235.36,0,0,1-5.31-27.95,244.36,244.36,0,0,1-2-30.15C499.13,519.39,517.33,589.33,514.75,597.38Z"/><path class="cls-20" d="M546.07,523.87c0-1.32,0-2.62,0-3.92-.53-68.6-15.19-106.44-33.26-117.22A78.72,78.72,0,0,1,535.91,394c-3,4.3-6.1,10.77-4.63,17.67,2.62,12.21,32.2,59.18,20.88,134.43-8.16,54.29-5.45,82.53,3.08,95.69H494.3S546.07,626.52,546.07,523.87Z"/><path class="cls-16" d="M172.71,468a33.88,33.88,0,0,1-.7,6.63H151c-6.17-4.1-16.24-12.21-22.28-24.39,5.62,6.12,15.21,13.57,25,15.84C162.26,468,168.61,467.16,172.71,468Z"/><path class="cls-27" d="M221.47,384.59c-2.34,8.51-13.09,25-22.9,42.7-10.72,19.3-20.32,40-16.56,53.09a29.2,29.2,0,0,1,1.35,7.45c0,5.71-4.3,3.93-8.68.69a79.77,79.77,0,0,1-9-8.14l.33-25.44s-14.43-13.26-2.58-42.25c.75-1.83,1.61-3.74,2.58-5.71,16.31-33,40.76-67.53,17.61-77.32C215.61,327.7,226.38,366.78,221.47,384.59Z"/><g class="cls-28"><path d="M183.64,329.66a23.73,23.73,0,0,1,14.51,10.44,32.08,32.08,0,0,1,2.24,4c.3.7.56,1.42.84,2.14l.42,1.07c.12.36.21.73.32,1.1l.61,2.22c.21.73.3,1.5.45,2.25l.4,2.26c0,.77.11,1.54.14,2.32a38.21,38.21,0,0,1-1.36,9.09c-.74,3-1.75,5.87-2.78,8.75-2.13,5.73-4.59,11.33-7.13,16.88-5.09,11.1-10.58,22-15.43,33.19a151.45,151.45,0,0,0-6.4,17,56.4,56.4,0,0,0-1.9,8.8,19.25,19.25,0,0,0,.59,8.64v0a.91.91,0,0,1-1.72.6h0a20.77,20.77,0,0,1-.57-9.47,56.3,56.3,0,0,1,2.07-9.05,153.83,153.83,0,0,1,6.68-17.13c5-11.16,10.63-22,15.85-33,2.61-5.51,5.13-11.06,7.32-16.74a88.61,88.61,0,0,0,2.86-8.66,36.86,36.86,0,0,0,1.46-9c0-.75-.07-1.5-.11-2.25l-.37-2.25c-.14-.75-.21-1.51-.41-2.24l-.58-2.2c-.1-.37-.19-.74-.3-1.1l-.4-1.06c-.27-.71-.52-1.43-.81-2.13a32.93,32.93,0,0,0-2.17-4A23.64,23.64,0,0,0,183.64,329.66Z"/></g><path class="cls-29" d="M206.79,436c-9.77,25.77,0,45.32-14.68,48.1-6.72,1.28-9.68-3.69-10.91-9.48a52.45,52.45,0,0,1-.49-14.81,49.92,49.92,0,0,1,7.72-12.55C192.7,442.23,198.76,437.33,206.79,436Z"/><path class="cls-30" d="M172.71,468c-.06,6-1.41,11.09-4.19,13.76a8.41,8.41,0,0,1-.81.72c-6.94,5.62-11.37-4.67-11.37-4.67s-18.45-9.1-27.6-27.57c-7-14.18-8.57-33.91,7.93-59.28C139.08,409,149,421.27,158.8,433v0l3.64,4.34C169.23,445.45,172.8,458,172.71,468Z"/><g class="cls-28"><path d="M136.66,390.91a76.63,76.63,0,0,0-1.49,11.79,78.28,78.28,0,0,0,.25,11.86,51.57,51.57,0,0,0,7.22,22.29c4.14,6.72,9.81,12.3,15,18.36a45.45,45.45,0,0,1,6.77,10,23.49,23.49,0,0,1,2.2,12h0a.91.91,0,1,1-1.82-.15v0a21.78,21.78,0,0,0-1.84-11.18,43.74,43.74,0,0,0-6.37-9.77c-5-6.07-10.63-11.84-14.71-18.76A52.37,52.37,0,0,1,135,414.6a80.39,80.39,0,0,1,0-11.92A76.43,76.43,0,0,1,136.66,390.91Z"/></g><g class="cls-24"><path d="M206.8,436c-2.81,3.24-5.41,6.65-7.91,10.12s-4.84,7.06-7,10.77a92.78,92.78,0,0,0-5.66,11.44,54,54,0,0,0-3.36,12.16v0a.92.92,0,0,1-1,.78.91.91,0,0,1-.78-1v0A55,55,0,0,1,185,467.81a93.55,93.55,0,0,1,6.13-11.38c2.27-3.66,4.78-7.16,7.39-10.57S203.88,439.15,206.8,436Z"/></g><path class="cls-23" d="M200.86,481l-6.26,38.44a3.43,3.43,0,0,1-3.37,2.78h-39a3.43,3.43,0,0,1-3.36-2.78l-5.09-31.21L142.6,481a3.42,3.42,0,0,1,3.36-4h51.53A3.43,3.43,0,0,1,200.86,481Z"/><path class="cls-31" d="M206.79,488.85H136.67l1.84-10.47a4.64,4.64,0,0,1,4.54-3.8h57.37a4.6,4.6,0,0,1,4.52,3.8Z"/><path class="cls-16" d="M180.71,459.82a52.54,52.54,0,0,0,.47,14.76H172a33.88,33.88,0,0,0,.7-6.63c.09-10-3.48-22.5-10.27-30.64L158.8,433v0a57.46,57.46,0,0,1,4.65-20.26c.53,9.24,2.8,25.31,12,27,7,1.28,16.15-5.68,23.1-12.42-3.68,6.61-7.21,13.39-10.14,20A49.92,49.92,0,0,0,180.71,459.82Z"/><path class="cls-16" d="M175.51,522.24H152.22a3.43,3.43,0,0,1-3.36-2.78l-5-30.61H164c-.5,4.29-1.1,12.29.42,18.49C165.59,512.27,169.91,518.6,175.51,522.24Z"/><rect class="cls-8" x="243.22" y="113.59" width="117.6" height="92.03" rx="3.99"/><path class="cls-7" d="M270.6,146.14V156a1.44,1.44,0,0,0,1.44,1.44h5.48A1.43,1.43,0,0,0,279,156v-9.9a1.43,1.43,0,0,1,1.44-1.44h.53a1.43,1.43,0,0,1,1.43,1.44v26.92a1.43,1.43,0,0,1-1.43,1.44h-.53a1.43,1.43,0,0,1-1.44-1.44V162a1.44,1.44,0,0,0-1.44-1.44H272A1.45,1.45,0,0,0,270.6,162v11.05a1.43,1.43,0,0,1-1.43,1.44h-.54a1.43,1.43,0,0,1-1.43-1.44V146.14a1.43,1.43,0,0,1,1.43-1.44h.54A1.43,1.43,0,0,1,270.6,146.14Z"/><path class="cls-7" d="M289.72,147.75h-2.57a1.43,1.43,0,0,1-1.43-1.43v-.18a1.43,1.43,0,0,1,1.43-1.44h11.41a1.44,1.44,0,0,1,1.44,1.44v.18a1.44,1.44,0,0,1-1.44,1.43H296a1.44,1.44,0,0,0-1.44,1.44v23.87a1.43,1.43,0,0,1-1.44,1.44h-.53a1.44,1.44,0,0,1-1.44-1.44V149.19A1.44,1.44,0,0,0,289.72,147.75Z"/><path class="cls-7" d="M321.17,161.68c-.22-3.94-.44-8.31-.31-11.67h-.18c-.66,3.31-1.46,6.85-2.39,10.34l-3.66,14h-2.17L309,160.93c-1-3.8-1.86-7.48-2.43-10.92h-.14c0,3.49-.18,7.65-.35,11.89l-.51,11.23a1.44,1.44,0,0,1-1.44,1.37H304a1.44,1.44,0,0,1-1.44-1.52l1.6-26.93a1.44,1.44,0,0,1,1.44-1.35h1.2a1.45,1.45,0,0,1,1.39,1.08l3.22,12.54c1,3.93,1.76,6.85,2.38,10.26h.13c.58-3.41,1.24-6.24,2.22-10.26l3.09-12.53a1.42,1.42,0,0,1,1.39-1.09h1.32a1.44,1.44,0,0,1,1.44,1.35L324.88,173a1.43,1.43,0,0,1-1.43,1.52h-.29a1.44,1.44,0,0,1-1.44-1.37Z"/><path class="cls-7" d="M331,144.7h.53a1.43,1.43,0,0,1,1.44,1.44v24.05a1.44,1.44,0,0,0,1.44,1.44H340a1.43,1.43,0,0,1,1.44,1.43h0A1.43,1.43,0,0,1,340,174.5H331a1.44,1.44,0,0,1-1.44-1.44V146.14A1.44,1.44,0,0,1,331,144.7Z"/><path class="cls-12" d="M397.38,121.47c3.73,0,4.61-2.51,4.61-4.75a54.6,54.6,0,0,0-.4-5.77,55.74,55.74,0,0,1-.41-6c0-6.11,3.73-8.69,8.55-8.69h.81v3.53h-1c-2.85,0-4,2-4,5.09a41.51,41.51,0,0,0,.41,5.16c.14,1.76.34,3.39.34,5,.07,5.29-1.77,7.13-4.68,7.94v.14c2.91.88,4.75,2.71,4.68,8.07,0,1.7-.2,3.4-.34,5.09a43.81,43.81,0,0,0-.41,5.23c0,3.05,1,5.16,4.07,5.16h1v3.53h-.88c-4.48,0-8.48-2.24-8.48-8.69a57.06,57.06,0,0,1,.41-6c.2-2,.4-3.94.4-5.84,0-2.17-.88-4.82-4.61-4.82Z"/><path class="cls-12" d="M466.57,124.86c-3.74,0-4.62,2.65-4.62,4.82,0,1.9.21,3.87.41,5.84a59.84,59.84,0,0,1,.41,6c0,6.45-4,8.69-8.49,8.69h-.88v-3.53h1c3.06-.34,4.07-2.11,4.07-5.16,0-1.83-.2-3.53-.34-5.23a43.45,43.45,0,0,1-.4-5.09c-.07-5.36,1.76-7.19,4.68-8.07V123c-2.92-.81-4.75-2.65-4.68-7.94a44.73,44.73,0,0,1,.4-5c.14-1.63.34-3.33.34-5.16,0-3-1.15-4.75-4-5.09h-1V96.29h.82c4.81,0,8.55,2.58,8.55,8.69a58.45,58.45,0,0,1-.41,6,54.59,54.59,0,0,0-.41,5.77c0,2.24.88,4.75,4.62,4.75Z"/><polygon class="cls-4" points="443.28 129.8 443.28 116.74 431.97 110.21 420.67 116.74 420.67 129.8 431.97 136.32 443.28 129.8"/><path class="cls-4" d="M528.34,194.85a27.57,27.57,0,0,0-32.9,43l-4.14-.49a.92.92,0,0,0-.22,1.82l6.31.75a1,1,0,0,0,.68-.19.94.94,0,0,0,.34-.61l.73-6.11a.92.92,0,1,0-1.82-.21l-.46,3.88a25.75,25.75,0,0,1,30.67-40.21.92.92,0,0,0,1.23-.41A.91.91,0,0,0,528.34,194.85Z"/><path class="cls-4" d="M504.58,245.5a27.58,27.58,0,0,0,32.91-43l4.14.49a.91.91,0,1,0,.22-1.81l-6.32-.75a.91.91,0,0,0-1,.8l-.73,6.11a.91.91,0,0,0,.8,1,.92.92,0,0,0,1-.8l.46-3.89a25.75,25.75,0,0,1-30.67,40.21.92.92,0,1,0-.82,1.64Z"/><path class="cls-4" d="M749.38,296.88H583.72a5.46,5.46,0,0,1-5.46-5.47h0a5.45,5.45,0,0,1,5.46-5.46H749.38a5.46,5.46,0,0,1,5.47,5.46h0A5.47,5.47,0,0,1,749.38,296.88Z"/><path class="cls-6" d="M690.23,320.65H583.72a5.46,5.46,0,0,1-5.46-5.47h0a5.46,5.46,0,0,1,5.46-5.47H690.23a5.47,5.47,0,0,1,5.47,5.47h0A5.47,5.47,0,0,1,690.23,320.65Z"/><path class="cls-6" d="M690.23,346.16H583.72a5.45,5.45,0,0,1-5.46-5.46h0a5.46,5.46,0,0,1,5.46-5.47H690.23a5.47,5.47,0,0,1,5.47,5.47h0A5.46,5.46,0,0,1,690.23,346.16Z"/><path class="cls-6" d="M162,206H76a5.47,5.47,0,0,1-5.47-5.47h0A5.47,5.47,0,0,1,76,195.1H162a5.46,5.46,0,0,1,5.46,5.47h0A5.46,5.46,0,0,1,162,206Z"/><path class="cls-4" d="M129.51,229.8H76a5.47,5.47,0,0,1-5.47-5.46h0A5.47,5.47,0,0,1,76,218.87h53.56a5.47,5.47,0,0,1,5.47,5.47h0A5.47,5.47,0,0,1,129.51,229.8Z"/><path class="cls-4" d="M129.51,255.32H76a5.47,5.47,0,0,1-5.47-5.47h0A5.47,5.47,0,0,1,76,244.38h53.56a5.47,5.47,0,0,1,5.47,5.47h0A5.47,5.47,0,0,1,129.51,255.32Z"/><path class="cls-32" d="M674.75,602.38a266.77,266.77,0,0,1-18.47,41.4c-23.15,42.31-50,69.21-51,108.66,0,0-8.35-37.16-1.65-79.5,3.75-23.77,12.25-49.18,29.62-70.56,48.34-59.45,41.18-113.53,41.18-113.53S698.62,533.21,674.75,602.38Z"/><g class="cls-24"><path d="M617.79,706.17c-.2-1.27-.3-2.45-.38-3.68l-.08-1.82v-1.81c0-1.21.06-2.42.11-3.63s.17-2.41.29-3.61l.17-1.8.26-1.79c.19-1.19.32-2.39.56-3.57.5-2.36.92-4.74,1.58-7.05a133.29,133.29,0,0,1,10.29-26.88l1.63-3.22c.52-1.08,1.17-2.09,1.75-3.14,1.21-2.07,2.35-4.19,3.63-6.21l7.78-12a167.15,167.15,0,0,0,12.67-25.49,246.26,246.26,0,0,0,9.05-27.07c2.53-9.18,4.6-18.5,6.24-27.89.82-4.69,1.53-9.41,2.1-14.14s1-9.48,1.33-14.24a141.9,141.9,0,0,0,.21-14.29c-.07-1.19-.1-2.38-.24-3.57l-.16-1.78-.26-1.76a22.73,22.73,0,0,0-1.94-6.86,22.65,22.65,0,0,1,2.06,6.84l.28,1.77.2,1.78c.15,1.18.21,2.38.29,3.57a139.78,139.78,0,0,1,0,14.33q-.32,7.15-1.13,14.29c-.52,4.75-1.18,9.48-2,14.2-1.53,9.43-3.51,18.8-6,28A248.09,248.09,0,0,1,659.4,601a168,168,0,0,1-12.51,25.87c-2.57,4.09-5.16,8.07-7.71,12.07-1.27,2-2.38,4.1-3.58,6.15-.57,1-1.21,2-1.72,3.12l-1.6,3.18a131.56,131.56,0,0,0-10.07,26.51,97.2,97.2,0,0,0-2.55,13.93c-.12,1.17-.27,2.35-.31,3.52s-.15,2.36-.14,3.53a44.31,44.31,0,0,0,.38,7v.07a.92.92,0,0,1-1.81.27Z"/></g><path class="cls-16" d="M656.28,643.78c-23.15,42.31-50,69.21-51,108.66,0,0-8.35-37.16-1.65-79.5C618.59,666.81,639.7,656.82,656.28,643.78Z"/><path class="cls-33" d="M618.65,794.2s-16.91-28.91,23.11-64.58,71.33-82.86,65.24-121c-38.27,44.47-140,107.53-111.35,185.61Z"/><g class="cls-24"><path d="M707,608.58a99.5,99.5,0,0,1-6.59,12.19c-2.42,3.94-5.1,7.71-7.85,11.43a205.67,205.67,0,0,1-18.22,20.9l-5,4.85-5.13,4.66c-1.69,1.59-3.52,3-5.27,4.52l-5.3,4.46a125.14,125.14,0,0,0-10,9.49c-1.61,1.64-3.11,3.39-4.65,5.11s-3,3.5-4.39,5.34A150,150,0,0,0,609,740.13a105.66,105.66,0,0,0-4.66,27c-.27,9.12.9,18.4,4.55,26.73a.92.92,0,0,1-.47,1.21.9.9,0,0,1-1.2-.47h0c-3.72-8.69-4.82-18.22-4.47-27.51a106.56,106.56,0,0,1,5-27.4A151,151,0,0,1,633.86,691c1.42-1.84,3-3.57,4.46-5.34s3.09-3.46,4.73-5.09a122.84,122.84,0,0,1,10.17-9.46l5.35-4.42c1.76-1.5,3.59-2.9,5.29-4.47l5.16-4.61,5-4.79a203.86,203.86,0,0,0,18.35-20.72c2.78-3.69,5.49-7.44,7.94-11.35A98.71,98.71,0,0,0,707,608.58Z"/></g><path class="cls-6" d="M44.34,584.77s-20.88-19-32-66.61C76.31,572.37,92,620.65,92,620.65Z"/><g class="cls-24"><path d="M12.37,518.16q13.34,19.1,26.06,38.62,6.34,9.78,12.39,19.74l3,5,2.88,5.08c1,1.69,1.84,3.44,2.76,5.16s1.7,3.53,2.55,5.29a.92.92,0,0,1-1.65.8h0l0-.07c-.8-1.75-1.54-3.52-2.4-5.25s-1.71-3.46-2.63-5.16l-2.76-5.11-2.87-5q-5.82-10.07-12-20Q25.35,537.5,12.37,518.16Z"/></g><path class="cls-27" d="M90.67,611.51C79.17,601.15,62.15,590.88,46,579.83,24.4,565.13,4.32,549,.61,529.27c-8.46,71.15,74.3,103.18,74.3,103.18l.16.24,30.06,43.84S117.41,635.66,90.67,611.51Z"/><g class="cls-24"><path d="M.61,529.27C.66,537.2,3,545,6.3,552.08a69.93,69.93,0,0,0,13.83,19.06,89,89,0,0,0,9,7.67c3.16,2.36,6.43,4.57,9.74,6.73,6.62,4.31,13.35,8.47,19.9,12.94a166.06,166.06,0,0,1,18.76,14.6c.74.66,1.47,1.34,2.17,2s1.43,1.38,2.12,2.09c1.37,1.45,2.77,2.86,4,4.39a84.77,84.77,0,0,1,7.22,9.52l1.59,2.53c.52.85,1,1.73,1.48,2.6,1,1.72,1.81,3.55,2.69,5.34a78,78,0,0,1,4.06,11.26A89.75,89.75,0,0,1,106,676.53a.92.92,0,0,1-1.83,0h0a87.61,87.61,0,0,0-2.87-23.25,77.59,77.59,0,0,0-3.86-11.07c-.86-1.76-1.62-3.57-2.6-5.27-.48-.85-.92-1.73-1.42-2.57l-1.55-2.5a83.58,83.58,0,0,0-7-9.44c-1.25-1.52-2.62-2.93-4-4.38-.68-.71-1.39-1.39-2.08-2.09s-1.4-1.38-2.13-2a164.06,164.06,0,0,0-18.5-14.69c-6.48-4.51-13.17-8.74-19.76-13.12-3.29-2.19-6.55-4.44-9.71-6.84a92.36,92.36,0,0,1-9-7.8A70.27,70.27,0,0,1,6.09,552.18C2.81,545,.58,537.2.61,529.27Z"/></g><path class="cls-2" d="M679.82,826h-556a15.88,15.88,0,0,1-15.88-15.88h0a15.88,15.88,0,0,1,15.88-15.88h556a15.88,15.88,0,0,1,15.88,15.88h0A15.88,15.88,0,0,1,679.82,826Z"/></g></g></g></svg>