<svg xmlns="http://www.w3.org/2000/svg" viewBox="0 0 72.66 72.66"><defs><style>.cls-1{fill:#6b90ee;}.cls-2{fill:none;stroke:#fff;stroke-width:10px;}.cls-3{fill:#fff;}.cls-4{fill:#707070;}</style></defs><title>bulle_4</title><g id="Calque_2" data-name="Calque 2"><g id="Calque_1-2" data-name="Calque 1"><g id="Groupe_17" data-name="Groupe 17"><g id="Ellipse_3" data-name="Ellipse 3"><circle class="cls-1" cx="36.33" cy="36.33" r="36.33"/><circle class="cls-2" cx="36.33" cy="36.33" r="31.33"/></g><g id="Tracé_3" data-name="Tracé 3"><path class="cls-3" d="M36.28,34a14.73,14.73,0,0,1-8.14-3.6A13.61,13.61,0,0,1,25,26.74a7.73,7.73,0,0,1,.3-8.55,13.6,13.6,0,0,1,3.39-3.46,14.71,14.71,0,0,1,8.38-3c2.24.07,5.14,2,7.56,5.1s4,6.79,3.85,9.66C48.25,32.77,40.71,34.22,36.28,34Z"/><path class="cls-4" d="M37.05,12.22A14.27,14.27,0,0,0,29,15.13a13.44,13.44,0,0,0-3.27,3.33,7.25,7.25,0,0,0-.28,8,13.46,13.46,0,0,0,3,3.55,14.24,14.24,0,0,0,7.84,3.48A16.73,16.73,0,0,0,44,32.05a6.29,6.29,0,0,0,4-5.63,11.73,11.73,0,0,0-1-4.67,20,20,0,0,0-2.77-4.67,17.6,17.6,0,0,0-3.68-3.53A7,7,0,0,0,37,12.16m0-1c5.09.17,12.11,8.84,11.89,15.28s-7.62,8.22-12.7,8S23.07,28.75,23.3,22.31,32,11,37.08,11.22Z"/></g></g></g></g></svg>